<?xml version="1.0" standalone="no"?>
<!DOCTYPE svg PUBLIC "-//W3C//DTD SVG 20010904//EN"
 "http://www.w3.org/TR/2001/REC-SVG-20010904/DTD/svg10.dtd">
<svg version="1.0" xmlns="http://www.w3.org/2000/svg"
 width="347.000000pt" height="397.000000pt" viewBox="0 0 347.000000 397.000000"
 preserveAspectRatio="xMidYMid meet">

<g transform="translate(0.000000,397.000000) scale(0.100000,-0.100000)"
fill="#000000" stroke="none">
<path d="M1273 3938 c-25 -27 -58 -149 -72 -268 -5 -47 -12 -188 -15 -315 -5
-208 -22 -378 -43 -432 -8 -19 -13 -18 -196 18 -231 46 -395 88 -524 134 -54
19 -106 35 -116 35 -26 0 -67 -45 -67 -73 0 -13 33 -93 74 -178 123 -255 275
-633 261 -647 -3 -3 -90 -40 -195 -82 -189 -77 -308 -139 -344 -179 -24 -26
-23 -79 1 -101 10 -9 54 -33 98 -53 79 -35 271 -137 315 -168 23 -15 22 -17
-146 -153 -93 -76 -175 -151 -183 -166 -11 -23 -12 -34 -2 -58 14 -33 16 -34
181 -86 63 -19 153 -54 198 -76 l84 -40 -7 -43 c-7 -43 -13 -59 -84 -232 -45
-108 -47 -143 -8 -170 17 -12 56 -15 189 -15 93 0 168 -2 168 -5 0 -3 -9 -38
-20 -77 -26 -93 -25 -120 3 -146 28 -26 83 -29 172 -7 33 8 65 14 72 15 6 0
35 -30 64 -67 102 -127 266 -234 429 -279 91 -25 329 -25 419 0 176 48 320
147 432 296 26 34 26 34 66 22 57 -17 97 -15 124 7 22 18 24 25 21 106 l-3 87
28 -7 c88 -22 241 -55 259 -55 34 0 74 37 74 70 0 16 -13 64 -29 107 -30 83
-77 261 -70 267 2 2 58 20 124 41 195 61 221 72 234 103 20 47 0 74 -99 142
-50 34 -129 96 -176 137 l-86 75 24 25 c80 86 304 252 474 351 74 43 84 55 84
101 0 53 -29 65 -164 72 -66 4 -150 14 -186 24 -66 17 -220 83 -220 94 0 3 27
39 60 79 33 41 95 122 137 180 184 255 250 341 310 400 72 72 81 105 38 147
-41 42 -110 34 -370 -40 -151 -43 -277 -65 -372 -65 l-75 0 6 38 c3 20 24 152
46 292 63 404 74 556 47 610 -15 29 -54 45 -88 37 -53 -14 -484 -379 -615
-521 l-73 -80 -18 34 c-32 58 -115 165 -225 287 -141 158 -228 274 -274 368
-21 42 -47 83 -58 91 -30 21 -70 17 -93 -8z m182 -338 c23 -30 95 -113 159
-185 133 -148 215 -264 247 -350 39 -105 55 -109 118 -29 67 86 205 227 320
328 155 135 311 260 317 254 9 -9 -15 -212 -51 -438 -19 -118 -42 -271 -50
-339 -21 -160 -27 -153 142 -159 168 -6 242 8 617 115 12 3 -1 -18 -36 -58
-29 -35 -94 -120 -143 -189 -146 -205 -234 -318 -301 -390 -35 -37 -64 -75
-64 -84 0 -22 68 -70 165 -118 93 -45 181 -74 283 -91 l72 -12 -93 -61 c-51
-34 -128 -91 -172 -127 -106 -86 -245 -230 -245 -254 0 -20 159 -165 275 -251
35 -26 64 -49 65 -52 0 -3 -62 -25 -137 -49 -76 -24 -144 -46 -151 -48 -11 -4
-12 6 -7 49 4 32 2 72 -5 97 -13 50 -85 132 -132 152 l-30 12 7 141 c7 152 -6
398 -30 561 -69 466 -243 705 -580 796 -114 31 -344 31 -460 0 -100 -26 -223
-86 -297 -146 -131 -103 -245 -288 -292 -475 -32 -127 -66 -431 -73 -662 l-6
-188 -46 -29 c-108 -70 -139 -129 -120 -235 19 -108 82 -203 177 -266 41 -27
48 -38 63 -90 l16 -59 -21 15 c-16 11 -59 14 -198 14 l-178 0 19 47 c11 27 31
77 46 112 15 35 34 101 42 148 15 78 15 85 -2 103 -27 30 -223 124 -325 156
-49 16 -90 31 -90 34 0 3 26 25 57 50 32 25 116 94 186 153 98 83 127 114 125
129 -3 23 -156 116 -356 218 -82 42 -109 60 -100 67 23 19 91 50 248 113 226
90 269 111 275 130 11 36 -131 410 -264 694 -28 60 -51 110 -51 111 0 2 42
-11 93 -27 159 -52 693 -165 723 -154 16 6 50 115 70 226 9 51 18 199 24 370
4 157 14 311 21 343 l12 58 40 -63 c22 -35 59 -88 82 -118z m545 -845 c117
-29 207 -79 290 -164 41 -42 83 -91 93 -109 16 -28 11 -25 -32 18 -67 67 -127
94 -212 94 -57 0 -78 -5 -142 -37 -63 -31 -91 -54 -163 -132 -59 -65 -98 -98
-122 -106 -26 -9 -104 -10 -272 -6 -184 4 -244 2 -275 -9 -55 -18 -77 -48 -73
-98 3 -33 9 -43 36 -59 18 -11 70 -25 115 -32 79 -11 80 -12 42 -19 -60 -12
-172 -83 -211 -134 -80 -105 -94 -284 -32 -405 66 -130 225 -215 383 -205 128
8 221 72 280 192 46 92 58 212 31 316 -30 116 -76 168 -185 211 l-46 18 120 1
c151 0 189 16 290 120 112 115 190 159 257 145 18 -4 55 -29 83 -56 74 -70
120 -84 155 -49 15 15 20 34 20 78 l1 57 15 -35 c26 -58 63 -213 86 -363 47
-307 19 -957 -53 -1242 -48 -189 -125 -332 -239 -446 -83 -83 -174 -135 -290
-166 -88 -23 -272 -23 -360 0 -211 56 -378 203 -490 431 -108 220 -135 387
-135 846 0 668 68 947 284 1160 115 114 211 163 376 196 87 17 284 11 375 -11z
m203 -236 c83 -23 196 -174 159 -211 -9 -9 -22 -1 -54 34 -119 128 -247 110
-412 -57 -121 -124 -124 -125 -291 -125 -157 0 -404 23 -437 41 l-22 12 23 19
c22 17 42 18 290 16 316 -4 312 -5 410 115 108 133 224 187 334 156z m-678
-509 c118 -45 159 -123 153 -290 -1 -54 -7 -103 -13 -108 -6 -6 -38 -5 -85 4
-41 7 -112 13 -156 14 -78 0 -265 -15 -310 -25 -17 -4 -23 2 -32 34 -27 89 -4
223 48 288 27 33 125 94 168 105 49 13 165 1 227 -22z m25 -456 c74 -9 80 -17
41 -58 -18 -19 -56 -44 -84 -57 -97 -41 -252 -11 -342 66 -40 34 -26 42 94 50
53 3 103 8 111 10 15 3 100 -2 180 -11z m-651 -414 c6 -69 14 -154 17 -190 l7
-65 -38 35 c-70 66 -114 173 -101 245 5 26 19 44 53 70 25 19 47 34 49 32 2
-1 8 -59 13 -127z m1756 86 c37 -29 65 -81 65 -123 0 -62 -31 -137 -75 -180
-58 -58 -69 -56 -61 10 3 28 11 112 18 185 7 72 14 132 17 132 2 0 19 -11 36
-24z m124 -372 c12 -56 33 -135 46 -175 14 -40 25 -74 25 -75 0 -7 -299 72
-309 81 -2 3 1 29 8 59 11 51 14 54 58 71 55 21 116 74 133 115 7 17 14 29 15
28 1 -2 12 -49 24 -104z m-1756 -286 c20 -43 32 -80 28 -83 -5 -2 -36 -11 -71
-19 -45 -11 -60 -11 -57 -3 2 7 15 54 28 104 13 51 26 89 30 85 3 -4 22 -42
42 -84z m1486 -85 c1 -37 1 -37 -32 -22 l-24 11 21 50 c21 50 21 50 27 22 4
-16 7 -44 8 -61z"/>
<path d="M2069 2099 c-80 -11 -197 -84 -239 -147 -41 -61 -64 -142 -63 -222 1
-166 85 -290 240 -351 46 -18 78 -23 153 -24 84 0 102 3 151 28 69 34 132 100
167 175 33 74 43 229 19 313 -25 84 -68 144 -124 172 -104 52 -205 71 -304 56z
m214 -89 c120 -46 161 -115 160 -271 0 -81 -4 -104 -25 -150 -63 -135 -184
-197 -324 -164 -162 37 -247 128 -261 278 -6 73 13 153 50 208 26 38 126 108
172 120 51 14 166 3 228 -21z"/>
<path d="M2088 1778 c-50 -23 -61 -45 -33 -68 8 -7 15 -20 15 -29 0 -37 46
-54 73 -27 7 8 24 16 37 18 34 5 48 32 28 55 -8 10 -18 30 -22 46 -8 33 -32
35 -98 5z"/>
<path d="M1617 1413 c-4 -3 -7 -37 -7 -74 0 -135 49 -286 104 -322 39 -26 91
-22 115 9 31 40 52 116 60 221 9 132 3 168 -29 168 -25 0 -25 -2 -32 -105 -9
-118 -23 -194 -45 -228 -12 -19 -17 -21 -29 -11 -37 30 -69 139 -77 261 -3 36
-8 71 -11 77 -8 12 -39 15 -49 4z"/>
<path d="M2379 1354 c-7 -8 -31 -25 -53 -37 -61 -33 -212 -32 -283 2 -57 27
-83 23 -83 -12 0 -64 210 -110 336 -72 75 22 144 69 144 99 0 35 -38 48 -61
20z"/>
<path d="M1065 1339 c-13 -20 5 -58 38 -78 102 -63 359 -70 412 -11 33 37 -16
66 -66 39 -25 -13 -187 -13 -238 1 -21 5 -55 21 -75 35 -40 27 -61 31 -71 14z"/>
<path d="M1593 818 c-50 -53 -78 -107 -91 -178 -12 -68 -6 -112 19 -139 30
-32 64 -36 104 -12 l35 20 11 -43 c22 -89 109 -128 166 -74 51 47 68 95 68
195 0 72 -4 96 -16 109 -13 12 -21 14 -36 5 -18 -9 -20 -18 -15 -84 5 -81 -7
-131 -38 -165 -45 -49 -73 13 -68 151 3 87 2 92 -18 95 -16 2 -29 -11 -59 -62
-48 -83 -72 -106 -86 -86 -13 20 -2 94 21 147 10 22 37 60 61 83 35 34 41 45
32 58 -19 31 -46 25 -90 -20z"/>
<path d="M1357 1783 c-4 -3 -24 -9 -44 -12 -42 -7 -55 -32 -30 -59 8 -9 17
-28 19 -42 3 -28 30 -38 49 -18 7 8 25 12 39 10 30 -4 46 19 31 46 -5 10 -5
22 2 33 8 13 7 21 -2 33 -14 16 -52 22 -64 9z"/>
</g>
</svg>
